<?xml version="1.0" standalone="no"?>
<!DOCTYPE svg PUBLIC "-//W3C//DTD SVG 20010904//EN"
 "http://www.w3.org/TR/2001/REC-SVG-20010904/DTD/svg10.dtd">
<svg version="1.0" xmlns="http://www.w3.org/2000/svg"
 width="300.000000pt" height="258.000000pt" viewBox="0 0 300.000000 258.000000"
 preserveAspectRatio="xMidYMid meet">
<metadata>
Created by potrace 1.10, written by Peter Selinger 2001-2011
</metadata>
<g transform="translate(0.000000,258.000000) scale(0.100000,-0.100000)"
fill="#000000" stroke="none">
<path d="M0 1290 l0 -1290 1500 0 1500 0 0 1290 0 1290 -1500 0 -1500 0 0
-1290z m1886 943 l384 -136 0 -359 c0 -197 -3 -358 -7 -358 -5 0 -46 37 -93
83 -59 56 -110 94 -163 122 l-77 40 0 105 0 105 -218 93 -217 93 -215 -94
-215 -93 1 -52 c3 -86 51 -161 134 -210 45 -27 46 -27 310 -33 291 -7 319 -12
440 -75 89 -46 160 -111 218 -198 68 -101 92 -177 99 -307 l6 -105 -319 -285
c-175 -156 -349 -312 -387 -347 l-69 -62 -37 32 c-21 18 -196 174 -390 347
l-351 315 0 238 c0 188 3 238 13 238 7 0 31 -18 52 -41 52 -53 145 -120 218
-155 l57 -28 0 -51 0 -50 97 -85 c53 -47 150 -133 216 -193 65 -59 122 -107
126 -107 3 0 29 22 56 48 28 26 122 110 208 187 141 125 157 143 152 165 -10
39 -56 100 -96 127 -70 46 -116 53 -353 53 -250 0 -293 7 -416 67 -103 50
-211 159 -263 264 -54 110 -67 184 -67 389 l0 176 383 136 c210 76 386 137
391 138 4 0 181 -61 392 -137z"/>
<path d="M1400 2306 c-36 -13 -82 -30 -102 -39 -21 -9 -38 -13 -38 -10 0 3 -6
1 -12 -4 -11 -9 -100 -42 -133 -49 -24 -6 -116 -41 -122 -47 -3 -4 -17 -7 -29
-7 -13 0 -25 -4 -28 -9 -3 -4 -27 -14 -53 -21 -27 -7 -68 -22 -91 -32 l-44
-19 4 -197 4 -197 33 -79 c33 -77 111 -191 154 -227 45 -36 157 -98 208 -115
43 -14 108 -18 319 -23 273 -7 286 -9 354 -53 51 -33 109 -111 121 -161 8 -29
-14 -54 -129 -152 -26 -22 -61 -53 -79 -70 -63 -59 -200 -180 -216 -191 -10
-8 -22 -9 -33 -3 -10 5 -18 7 -18 5 0 -3 -13 7 -29 22 -16 15 -59 54 -96 87
-37 33 -82 74 -101 90 -18 17 -57 50 -85 75 -118 102 -129 116 -129 164 0 43
0 44 -57 71 -32 15 -60 30 -63 34 -3 3 -16 14 -30 22 -14 9 -49 38 -77 64
l-53 47 0 -208 0 -208 38 -34 c35 -33 182 -166 206 -187 6 -5 47 -41 91 -80
44 -38 86 -77 95 -85 9 -8 54 -49 100 -90 46 -41 93 -84 104 -95 12 -11 40
-37 64 -58 49 -42 51 -42 123 25 26 24 73 66 104 93 32 28 77 68 99 90 23 22
75 69 115 105 115 100 165 145 309 276 l45 41 -2 88 c-3 100 -29 187 -88 285
-38 65 -127 153 -180 178 -18 9 -33 20 -33 24 0 5 -4 6 -10 3 -5 -3 -10 -2
-10 3 0 9 -84 35 -150 48 -14 2 -133 5 -265 7 -230 2 -242 3 -285 26 -55 28
-130 88 -130 103 0 6 -6 19 -14 27 -51 59 -50 211 1 211 4 0 26 9 48 19 89 43
244 111 252 111 3 0 30 11 59 25 50 24 104 26 104 5 0 -4 13 -10 29 -13 16 -3
56 -19 90 -36 33 -16 61 -27 61 -25 0 2 18 -5 40 -16 21 -11 64 -29 94 -40 30
-12 66 -30 80 -41 25 -19 26 -25 26 -116 0 -85 2 -98 22 -114 11 -11 26 -19
32 -19 19 0 118 -70 171 -121 l50 -48 3 312 c3 357 12 323 -101 357 -40 12
-76 25 -82 29 -5 4 -38 16 -72 26 -35 10 -63 22 -63 27 0 4 -7 8 -16 8 -20 0
-217 67 -258 87 -35 18 -130 43 -159 42 -12 0 -51 -10 -87 -23z"/>
</g>
</svg>
